<?xml version="1.0" standalone="no"?><!DOCTYPE svg PUBLIC "-//W3C//DTD SVG 1.1//EN" "http://www.w3.org/Graphics/SVG/1.1/DTD/svg11.dtd"><svg t="1744023856591" class="icon" viewBox="0 0 1024 1024" version="1.1" xmlns="http://www.w3.org/2000/svg" p-id="6311" xmlns:xlink="http://www.w3.org/1999/xlink" width="200" height="200"><path d="M145 127.7h737v598.7H145z" fill="#FFFFFF" p-id="6312"></path><path d="M944 111.7H83c-8.8 0-16 7.2-16 16s7.2 16 16 16h46v582.7c0 8.8 7.2 16 16 16h162.8L164.7 884.7c-6.3 6.2-6.3 16.4-0.1 22.6 3.1 3.1 7.2 4.7 11.3 4.7 4.1 0 8.2-1.5 11.3-4.7l166-165h317.6l165.9 164.9c3.1 3.1 7.2 4.7 11.3 4.7 4.1 0 8.2-1.6 11.3-4.7 6.2-6.3 6.2-16.4-0.1-22.6l-143-142.2H882c8.8 0 16-7.2 16-16V143.7h46c8.8 0 16-7.2 16-16s-7.2-16-16-16z m-78 598.7H161V143.7h705v566.7z" fill="#00365B" p-id="6313"></path><path d="M252.7 227v400h521.6V227H252.7z m258.9 296.2H345.3c-17.5 0-31.7-14.2-31.7-31.7s14.2-31.7 31.7-31.7h166.3c17.5 0 31.7 14.2 31.7 31.7s-14.2 31.7-31.7 31.7z m170.1-135.9H345.3c-17.5 0-31.7-14.2-31.7-31.7s14.2-31.7 31.7-31.7h336.4c17.5 0 31.7 14.2 31.7 31.7s-14.2 31.7-31.7 31.7z" fill="#34A89F" p-id="6314"></path></svg>