<?xml version="1.0" standalone="no"?><!DOCTYPE svg PUBLIC "-//W3C//DTD SVG 1.1//EN" "http://www.w3.org/Graphics/SVG/1.1/DTD/svg11.dtd"><svg t="1741998770823" class="icon" viewBox="0 0 1024 1024" version="1.1" xmlns="http://www.w3.org/2000/svg" p-id="1524" xmlns:xlink="http://www.w3.org/1999/xlink" width="200" height="200"><path d="M389.802667 472.64a100.693333 100.693333 0 0 1-46.634667-15.210667A161.962667 161.962667 0 0 0 234.666667 610.154667h80.064a206.037333 206.037333 0 0 1 75.093333-137.514667zM396.629333 448.192c15.872 0.085333 31.36-4.906667 44.224-14.229333a99.541333 99.541333 0 0 1 1.28-119.296 73.386667 73.386667 0 0 0-45.504-15.936 74.816 74.816 0 0 0-54.976 128.768 74.794667 74.794667 0 0 0 54.976 20.693333zM727.68 610.133333h80.042667a161.962667 161.962667 0 0 0-108.501334-152.704 97.578667 97.578667 0 0 1-46.634666 15.210667 206.336 206.336 0 0 1 75.093333 137.514667zM620.736 374.954667a99.541333 99.541333 0 0 1-19.349333 58.730666 74.794667 74.794667 0 1 0 44.373333-134.954666 73.386667 73.386667 0 0 0-45.504 15.637333c13.312 17.408 20.501333 38.698667 20.48 60.586667z" fill="#518CFF" opacity=".5" p-id="1525"></path><path d="M574.656 458.858667a99.541333 99.541333 0 0 1-106.922667 0 161.962667 161.962667 0 0 0-108.501333 152.725333h323.925333a161.962667 161.962667 0 0 0-108.501333-152.746667zM521.194667 449.749333a74.794667 74.794667 0 1 0 0-149.589333 74.794667 74.794667 0 0 0 0 149.589333z" fill="#518CFF" p-id="1526"></path><path d="M777.173333 668.458667H265.216a28.437333 28.437333 0 0 0 0 56.874666H777.173333a28.437333 28.437333 0 0 0 0-56.874666z" fill="#518CFF" opacity=".5" p-id="1527"></path></svg>